HIERARCHY
ROOT pelvis
{
  OFFSET 0 100 0
  CHANNELS 6 Xposition Yposition Zposition Zrotation Xrotation Yrotation
  JOINT pelvis_right_femur
  {
    OFFSET -10.78128 -3.44521 -0.5502486
    CHANNELS 3 Zrotation Xrotation Yrotation
    JOINT right_femur_tibia
    {
      OFFSET -0.8047443 -44.0398 -0.1307829
      CHANNELS 3 Zrotation Xrotation Yrotation
      JOINT right_tibia_foot
      {
        OFFSET 3.006224 -47.83518 -5
        CHANNELS 3 Zrotation Xrotation Yrotation
        End Site
        {
          OFFSET 0 -5 15
        }
      }
    }
  }
  JOINT pelvis_left_femur
  {
    OFFSET 10.78128 -3.44521 -0.5502486
    CHANNELS 3 Zrotation Xrotation Yrotation
    JOINT left_femur_tibia
    {
      OFFSET 0.8047443 -44.0398 -0.1307829
      CHANNELS 3 Zrotation Xrotation Yrotation
      JOINT left_tibia_foot
      {
        OFFSET -4.370144 -48.10324 -4.275266
        CHANNELS 3 Zrotation Xrotation Yrotation
        End Site
        {
          OFFSET 0 -5 15
        }
      }
    }
  }
  JOINT pelvis_spine1
  {
    OFFSET 0 6.468898 -3.129235
    CHANNELS 3 Zrotation Xrotation Yrotation
    JOINT spine1
    {
      OFFSET 0 23.15396 4.99043
      CHANNELS 3 Zrotation Xrotation Yrotation
      JOINT spine2
      {
        OFFSET 0 20.79997 -5.064912
        CHANNELS 3 Zrotation Xrotation Yrotation
        JOINT neck
        {
          OFFSET 0 14.38658 9.616178
          CHANNELS 3 Zrotation Xrotation Yrotation
          End Site
          {
            OFFSET 0 20 0
          }
        }
      }
      JOINT right_manubrium
      {
        OFFSET -5.722621 16.35077 3.967754
        CHANNELS 3 Zrotation Xrotation Yrotation
        JOINT right_clavicle
        {
          OFFSET -13.16364 1.694482 -4.693211
          CHANNELS 3 Zrotation Xrotation Yrotation
          JOINT right_humerus
          {
            OFFSET -28.5034 -0.3100689 -2.792744
            CHANNELS 3 Zrotation Xrotation Yrotation
            JOINT right_radius
            {
              OFFSET -25.15693 0.02248979 -1.271978
              CHANNELS 3 Zrotation Xrotation Yrotation
              End Site
              {
                OFFSET -15 0 0
              }
            }
          }
        }
      }
      JOINT left_manubrium
      {
        OFFSET 5.722621 16.35077 3.967754
        CHANNELS 3 Zrotation Xrotation Yrotation
        JOINT left_clavicle
        {
          OFFSET 13.16364 1.694482 -4.693211
          CHANNELS 3 Zrotation Xrotation Yrotation
          JOINT left_humerus
          {
            OFFSET 29.39168 -1.063119 -2.237045
            CHANNELS 3 Zrotation Xrotation Yrotation
            JOINT left_radius
            {
              OFFSET 24.59957 -0.9528479 0.9047498
              CHANNELS 3 Zrotation Xrotation Yrotation
              End Site
              {
                OFFSET 15 -0 -0
              }
            }
          }
        }
      }
    }
  }
}
MOTION
Frames: 11
Frame Time: 0.0416666666667
1735.108 99.03653 2374.207 7.644653 -2.182245 67.45831 3.531824 13.26332 5.176735 -0 15.17244 -0 1.25624 -16.39525 -3.620584 0.6839729 -22.32949 -3.438955 -0 35.90228 -0 -7.679476 -7.218874 18.77161 -0.9174974 1.921776 8.016123 -0.3914309 9.46912 -2.955521 2.60273 22.91617 4.421493 1.6917 -15.94466 6.794009 1.5583 -19.77009 11.40472 80.70536 23.47465 -6.509716 -0 0 21.558 -22.89771 11.52994 12.58112 4.151492 -15.55104 -2.774881 -92.09516 24.02149 21.44427 0 0 -12.14323 -1.864725 5.758216 15.82478
1741.381 98.3436 2375.996 7.809964 -2.367907 66.7577 2.643723 18.82232 6.815803 -0 17.56319 -0 2.818036 -18.83988 -4.207471 0.7608586 -25.1115 -3.032146 -0 34.15904 -0 -7.348114 -6.127906 19.94189 -0.6872177 1.293713 8.858304 -0.5874511 9.307202 -2.686932 2.914589 22.6046 3.725317 0.7644426 -16.06906 7.047275 0.4909728 -20.95103 10.93974 81.10837 20.52094 -5.167986 -0 0 23.9952 -22.57604 10.40921 13.06906 3.814822 -14.08991 -2.039179 -93.70747 23.8585 23.87759 0 0 -8.602663 -2.636268 4.05325 17.24371
1748.054 97.94864 2377.783 8.314868 -2.589914 66.04395 1.369113 23.75865 9.02456 -0 22.31294 -0 4.366289 -20.21608 -5.225804 0.1123706 -26.43686 -3.32006 -0 35.0757 -0 -6.893254 -4.949877 21.14512 -0.5428973 0.5462712 9.687688 -0.8155158 9.30698 -2.461612 3.378901 22.31408 2.937726 -0.1829503 -16.12491 7.410605 -0.463963 -21.80334 10.40505 82.14762 17.41172 -4.440406 -0 0 25.92498 -21.86936 9.381319 13.18532 3.34675 -12.63375 -1.354271 -95.31319 23.66877 26.08486 0 0 -4.642117 -3.270371 2.409268 18.61034
1755.018 98.0934 2379.572 8.895862 -2.70068 65.42505 -0.001606794 26.57027 11.0394 -0 29.21778 -0 5.606244 -19.46094 -6.328648 -1.145435 -26.07724 -4.199508 -0 36.93962 -0 -6.234769 -4.243567 21.95881 -0.63993 -0.1602938 10.26156 -1.053147 9.525859 -2.366833 3.767201 22.02959 2.42051 -0.8123337 -16.22707 7.774272 -0.9391792 -22.22608 10.0138 83.32299 15.29193 -4.381156 -0 0 26.97074 -21.29931 8.86197 13.10686 2.869589 -11.62832 -0.9671357 -96.43379 23.45607 27.73974 0 0 -1.487199 -3.625525 1.241155 19.64425
1762.073 98.85801 2381.338 9.15699 -2.529736 65.06932 -0.8712373 25.70833 11.69651 -0 37.44719 -0 6.214873 -15.83325 -7.073572 -2.667427 -23.7647 -5.394183 -0 37.1599 -0 -5.337627 -4.615825 21.91414 -1.106964 -0.6681512 10.24904 -1.243478 9.916638 -2.529341 3.809673 21.76993 2.574128 -0.7848045 -16.49425 8.022532 -0.5852658 -22.10095 9.950912 84.03007 15.44889 -5.069784 -0 0 26.68366 -21.48846 9.279655 13.09724 2.545361 -11.53141 -1.106527 -96.46208 23.30038 28.35075 0 0 -0.5589812 -3.5891 1.076202 20.00596
1768.975 100.1071 2383.046 8.779186 -1.978408 65.16189 -0.9152231 20.24984 10.17827 -0 45.5966 -0 5.90234 -9.41203 -7.068129 -4.03239 -19.38709 -6.588982 -0 33.55675 -0 -4.293816 -6.466254 20.74664 -1.972561 -0.8438396 9.386584 -1.316308 10.34367 -3.0461 3.330853 21.59121 3.63452 0.08072758 -16.9532 8.085867 0.7359441 -21.32373 10.27045 83.95804 18.71054 -6.522218 -0 0 24.75683 -22.8621 10.83313 13.41007 2.506336 -12.61094 -1.87924 -94.9347 23.28083 27.4007 0 0 -2.813606 -3.091153 2.29703 19.39517
1775.521 101.5244 2384.66 7.7654 -1.156712 65.83711 -0.6043835 10.70512 6.823772 -0 51.9402 -0 4.590403 -1.614608 -6.223585 -4.941853 -13.28992 -7.549214 -0 25.90439 -0 -3.364273 -9.649325 18.63776 -3.069586 -0.621067 7.695774 -1.216078 10.64572 -3.909657 2.389227 21.54998 5.437358 1.595144 -17.47432 7.990525 2.7253 -19.92694 10.82019 83.46701 24.61752 -8.590372 -0 0 21.36182 -25.26767 13.20412 14.14407 2.773557 -14.71608 -3.144 -91.88851 23.34323 24.63428 0 0 -8.006257 -2.137299 4.723138 17.76958
1781.614 102.7406 2386.168 6.593587 -0.431621 67.07116 -0.6180255 -0.4131058 3.01772 -0 54.92438 -0 2.758991 4.728667 -5.114022 -5.353329 -6.461429 -8.151367 -0 16.90623 -0 -2.849162 -13.24168 16.28138 -4.001503 -0.07589186 5.629567 -0.9272478 10.71104 -4.966591 1.348219 21.67532 7.296212 3.07462 -17.77866 7.871713 4.574236 -18.21875 11.27783 83.44859 30.83842 -11.0365 -0 0 17.3862 -27.68151 15.48898 15.00797 3.234216 -17.14487 -4.452007 -88.12508 23.31282 20.40601 0 0 -14.30164 -0.9262731 7.345803 15.58898
1787.294 103.4875 2387.587 6.056808 -0.2251388 68.5992 -0.8549698 -9.34619 0.6023774 -0 53.75254 -0 1.552036 6.490113 -5.035478 -5.460955 -0.2838011 -8.344541 -0 11.24552 -0 -2.841899 -15.84356 14.63728 -4.302644 0.5464252 3.938042 -0.4874394 10.5236 -5.959686 0.7590073 21.96426 8.238264 3.578885 -17.56823 7.921053 5.280708 -16.73275 11.33045 84.54545 33.90609 -13.51499 -0 0 14.19392 -28.4766 16.61043 15.27766 3.722221 -18.86885 -5.202727 -84.98957 23.14626 15.73628 0 0 -18.92437 0.06665617 8.706957 13.7853
1792.732 103.6874 2388.97 6.707229 -0.6776506 70.00127 -0.5891067 -13.37338 1.058331 -0 48.7144 -0 1.797035 2.274947 -6.958907 -5.529281 4.189831 -8.158327 -0 12.45626 -0 -3.190105 -16.50395 14.38216 -3.759426 0.9641673 3.225846 0.01916028 10.14999 -6.65977 1.031224 22.35283 7.620731 2.550049 -16.7591 8.285257 4.282991 -15.89055 10.85508 86.59122 31.5656 -15.42417 -0 0 12.82045 -26.55902 15.97248 14.36889 4.117154 -19.17458 -5.020007 -83.52683 23.06738 11.77469 0 0 -19.91494 0.3859107 7.91308 13.18536
1798.164 103.4374 2390.411 8.284049 -1.519389 70.9389 0.2608116 -12.83775 4.072008 -0 41.02904 -0 2.877501 -6.128306 -10.29757 -5.68806 6.933414 -7.771851 -0 19.82729 -0 -3.712142 -15.55075 15.34657 -2.634149 1.061553 3.505238 0.4878059 9.681171 -7.001978 2.095264 22.69834 5.697517 0.3779351 -15.62445 8.932654 1.963334 -15.6465 9.982489 89.0867 24.90714 -16.43827 -0 0 13.15877 -22.51645 13.88898 12.51985 4.400854 -18.27145 -4.081488 -83.68133 23.27978 9.038205 0 0 -17.75099 0.117526 5.479695 13.73431
